<svg width="50" height="50" viewBox="0 0 50 50" fill="none" xmlns="http://www.w3.org/2000/svg">
<g filter="url(#filter0_d_0_1968)">
<rect x="10" y="10" width="30" height="30" rx="15" fill="url(#paint0_linear_0_1968)"/>
</g>
<path fill-rule="evenodd" clip-rule="evenodd" d="M27.3547 17.3209C27.5923 16.9817 28.0599 16.8992 28.3992 17.1368C28.7384 17.3743 28.8209 17.8419 28.5833 18.1812L27.3678 19.9171C28.1573 20.1693 28.6952 20.4414 28.6952 20.4414C28.6952 20.4414 27.3805 22.7029 25.1506 22.7029C22.9206 22.7029 21.3361 20.5951 21.3361 20.5951C21.3361 20.5951 21.8979 20.2365 22.7308 19.929L21.4073 18.3518C21.1411 18.0345 21.1825 17.5615 21.4998 17.2953C21.817 17.029 22.29 17.0704 22.5563 17.3877L24.2491 19.4052C24.2828 19.4453 24.3115 19.4878 24.3353 19.5321C24.5344 19.5089 24.7374 19.4959 24.9423 19.4959C25.2296 19.4959 25.5167 19.5179 25.7968 19.5552C25.8109 19.529 25.8266 19.5033 25.8441 19.4783L27.3547 17.3209ZM21.7956 22.8099C21.2005 22.3849 20.3001 21.2757 20.3001 21.2757C20.3001 21.2757 18 23.0983 18 26.9631C18 30.8278 21.9764 33.1538 21.9764 33.1538C21.9764 33.1538 23.8763 31.2352 24.3427 28.803C24.8091 26.3708 23.6528 23.6701 23.6528 23.6701C23.6528 23.6701 22.3907 23.2349 21.7956 22.8099ZM28.2044 22.8099C28.7995 22.3849 29.6999 21.2757 29.6999 21.2757C29.6999 21.2757 32 23.0983 32 26.9631C32 30.8278 28.0236 33.1538 28.0236 33.1538C28.0236 33.1538 26.1237 31.2352 25.6573 28.803C25.1909 26.3708 26.3472 23.6701 26.3472 23.6701C26.3472 23.6701 27.6093 23.2349 28.2044 22.8099Z" fill="white"/>
<defs>
<filter id="filter0_d_0_1968" x="0" y="0" width="50" height="50" filterUnits="userSpaceOnUse" color-interpolation-filters="sRGB">
<feFlood flood-opacity="0" result="BackgroundImageFix"/>
<feColorMatrix in="SourceAlpha" type="matrix" values="0 0 0 0 0 0 0 0 0 0 0 0 0 0 0 0 0 0 127 0" result="hardAlpha"/>
<feOffset/>
<feGaussianBlur stdDeviation="5"/>
<feColorMatrix type="matrix" values="0 0 0 0 0.596078 0 0 0 0 0.764706 0 0 0 0 0.184314 0 0 0 0.7 0"/>
<feBlend mode="normal" in2="BackgroundImageFix" result="effect1_dropShadow_0_1968"/>
<feBlend mode="normal" in="SourceGraphic" in2="effect1_dropShadow_0_1968" result="shape"/>
</filter>
<linearGradient id="paint0_linear_0_1968" x1="10" y1="10" x2="10" y2="40" gradientUnits="userSpaceOnUse">
<stop stop-color="#92BC2C"/>
<stop offset="1" stop-color="#AFC836"/>
</linearGradient>
</defs>
</svg>
