<svg width="50" height="50" viewBox="0 0 50 50" fill="none" xmlns="http://www.w3.org/2000/svg">
<g filter="url(#filter0_d_0_1902)">
<rect x="10" y="10" width="30" height="30" rx="15" fill="url(#paint0_linear_0_1902)"/>
</g>
<path fill-rule="evenodd" clip-rule="evenodd" d="M32 25C32 28.866 28.866 32 25 32C23.8401 32 22.7461 31.7179 21.7828 31.2185C22.6915 31.1825 23.5427 30.8826 24.2815 30.3826C24.5474 30.4233 24.8199 30.4444 25.0972 30.4444C28.0504 30.4444 30.4444 28.0504 30.4444 25.0972C30.4444 22.144 28.0504 19.75 25.0972 19.75C24.8991 19.75 24.7035 19.7608 24.5109 19.7818C23.7212 19.1835 22.7871 18.8213 21.7828 18.7815C22.7461 18.2821 23.8401 18 25 18C28.866 18 32 21.134 32 25Z" fill="white"/>
<defs>
<filter id="filter0_d_0_1902" x="0" y="0" width="50" height="50" filterUnits="userSpaceOnUse" color-interpolation-filters="sRGB">
<feFlood flood-opacity="0" result="BackgroundImageFix"/>
<feColorMatrix in="SourceAlpha" type="matrix" values="0 0 0 0 0 0 0 0 0 0 0 0 0 0 0 0 0 0 127 0" result="hardAlpha"/>
<feOffset/>
<feGaussianBlur stdDeviation="5"/>
<feColorMatrix type="matrix" values="0 0 0 0 0.364706 0 0 0 0 0.34902 0 0 0 0 0.415686 0 0 0 0.7 0"/>
<feBlend mode="normal" in2="BackgroundImageFix" result="effect1_dropShadow_0_1902"/>
<feBlend mode="normal" in="SourceGraphic" in2="effect1_dropShadow_0_1902" result="shape"/>
</filter>
<linearGradient id="paint0_linear_0_1902" x1="10.1934" y1="10" x2="10.1934" y2="39.6132" gradientUnits="userSpaceOnUse">
<stop stop-color="#595761"/>
<stop offset="1" stop-color="#6E7587"/>
</linearGradient>
</defs>
</svg>
