<svg width="50" height="50" viewBox="0 0 50 50" fill="none" xmlns="http://www.w3.org/2000/svg">
<g filter="url(#filter0_d_0_1934)">
<rect x="10" y="10" width="30" height="30" rx="15" fill="url(#paint0_linear_0_1934)"/>
</g>
<path fill-rule="evenodd" clip-rule="evenodd" d="M20.8683 29.9572C20.8074 29.9572 20.7648 29.8969 20.7851 29.8395L24.5738 19.134C24.6023 19.0537 24.6782 19 24.7634 19H28.622C28.7075 19 28.7837 19.0541 28.8119 19.1349L32.4919 29.6898C32.5375 29.8206 32.4404 29.9572 32.302 29.9572H20.8683ZM17.6978 30C17.5574 30 17.4602 29.8598 17.5094 29.7283L20.2478 22.4177C20.2772 22.3392 20.3522 22.2871 20.4361 22.2871H22.5289C22.6683 22.2871 22.7655 22.4256 22.718 22.5567L20.0701 29.8674C20.0413 29.947 19.9657 30 19.881 30H17.6978Z" fill="white"/>
<defs>
<filter id="filter0_d_0_1934" x="0" y="0" width="50" height="50" filterUnits="userSpaceOnUse" color-interpolation-filters="sRGB">
<feFlood flood-opacity="0" result="BackgroundImageFix"/>
<feColorMatrix in="SourceAlpha" type="matrix" values="0 0 0 0 0 0 0 0 0 0 0 0 0 0 0 0 0 0 127 0" result="hardAlpha"/>
<feOffset/>
<feGaussianBlur stdDeviation="5"/>
<feColorMatrix type="matrix" values="0 0 0 0 0.847059 0 0 0 0 0.509804 0 0 0 0 0.333333 0 0 0 0.7 0"/>
<feBlend mode="normal" in2="BackgroundImageFix" result="effect1_dropShadow_0_1934"/>
<feBlend mode="normal" in="SourceGraphic" in2="effect1_dropShadow_0_1934" result="shape"/>
</filter>
<linearGradient id="paint0_linear_0_1934" x1="10.1934" y1="10" x2="10.1934" y2="39.6132" gradientUnits="userSpaceOnUse">
<stop stop-color="#DC7545"/>
<stop offset="1" stop-color="#D29463"/>
</linearGradient>
</defs>
</svg>
