<svg width="50" height="50" viewBox="0 0 50 50" fill="none" xmlns="http://www.w3.org/2000/svg">
<g filter="url(#filter0_d_0_1872)">
<rect x="10" y="10" width="30" height="30" rx="15" fill="url(#paint0_linear_0_1872)"/>
</g>
<path fill-rule="evenodd" clip-rule="evenodd" d="M29.1529 17.8357L29.2051 22.4134L25.2123 24.3301L25.1631 20.0079L29.1529 17.8357Z" fill="white"/>
<path fill-rule="evenodd" clip-rule="evenodd" d="M33.1554 25.049L29.2029 27.3098L25.2481 25.0454L29.2009 22.9691L33.1554 25.049Z" fill="white"/>
<path fill-rule="evenodd" clip-rule="evenodd" d="M24.5451 25.049L20.5925 27.3098L16.6377 25.0454L20.5905 22.9691L24.5451 25.049Z" fill="white"/>
<path fill-rule="evenodd" clip-rule="evenodd" d="M20.5482 17.817L24.6506 19.8487L24.5457 24.2764L20.6723 22.358L20.5482 17.817Z" fill="white"/>
<path fill-rule="evenodd" clip-rule="evenodd" d="M29.2645 32.2118L25.1621 30.18L25.267 25.7523L29.1405 27.6707L29.2645 32.2118Z" fill="white"/>
<path fill-rule="evenodd" clip-rule="evenodd" d="M20.6899 32.253L20.6377 27.6753L24.6304 25.7586L24.6797 30.0808L20.6899 32.253Z" fill="white"/>
<defs>
<filter id="filter0_d_0_1872" x="0" y="0" width="50" height="50" filterUnits="userSpaceOnUse" color-interpolation-filters="sRGB">
<feFlood flood-opacity="0" result="BackgroundImageFix"/>
<feColorMatrix in="SourceAlpha" type="matrix" values="0 0 0 0 0 0 0 0 0 0 0 0 0 0 0 0 0 0 127 0" result="hardAlpha"/>
<feOffset/>
<feGaussianBlur stdDeviation="5"/>
<feColorMatrix type="matrix" values="0 0 0 0 0.494118 0 0 0 0 0.831373 0 0 0 0 0.788235 0 0 0 0.7 0"/>
<feBlend mode="normal" in2="BackgroundImageFix" result="effect1_dropShadow_0_1872"/>
<feBlend mode="normal" in="SourceGraphic" in2="effect1_dropShadow_0_1872" result="shape"/>
</filter>
<linearGradient id="paint0_linear_0_1872" x1="10" y1="10" x2="10" y2="40" gradientUnits="userSpaceOnUse">
<stop stop-color="#70CCBD"/>
<stop offset="1" stop-color="#8CDDD4"/>
</linearGradient>
</defs>
</svg>
