<svg width="50" height="50" viewBox="0 0 50 50" fill="none" xmlns="http://www.w3.org/2000/svg">
<g filter="url(#filter0_d_0_1910)">
<rect x="10" y="10" width="30" height="30" rx="15" fill="url(#paint0_linear_0_1910)"/>
</g>
<path fill-rule="evenodd" clip-rule="evenodd" d="M25 32C28.866 32 32 28.866 32 25C32 21.134 28.866 18 25 18C21.134 18 18 21.134 18 25C18 28.866 21.134 32 25 32ZM25 29C27.2091 29 29 27.2091 29 25C29 22.7909 27.2091 21 25 21C22.7909 21 21 22.7909 21 25C21 27.2091 22.7909 29 25 29Z" fill="white"/>
<defs>
<filter id="filter0_d_0_1910" x="0" y="0" width="50" height="50" filterUnits="userSpaceOnUse" color-interpolation-filters="sRGB">
<feFlood flood-opacity="0" result="BackgroundImageFix"/>
<feColorMatrix in="SourceAlpha" type="matrix" values="0 0 0 0 0 0 0 0 0 0 0 0 0 0 0 0 0 0 127 0" result="hardAlpha"/>
<feOffset/>
<feGaussianBlur stdDeviation="5"/>
<feColorMatrix type="matrix" values="0 0 0 0 0.364706 0 0 0 0 0.34902 0 0 0 0 0.415686 0 0 0 0.7 0"/>
<feBlend mode="normal" in2="BackgroundImageFix" result="effect1_dropShadow_0_1910"/>
<feBlend mode="normal" in="SourceGraphic" in2="effect1_dropShadow_0_1910" result="shape"/>
</filter>
<linearGradient id="paint0_linear_0_1910" x1="10.1934" y1="10" x2="10.1934" y2="39.6132" gradientUnits="userSpaceOnUse">
<stop stop-color="#9298A4"/>
<stop offset="1" stop-color="#A3A49E"/>
</linearGradient>
</defs>
</svg>
