<svg width="50" height="50" viewBox="0 0 50 50" fill="none" xmlns="http://www.w3.org/2000/svg">
<g filter="url(#filter0_d_0_1888)">
<rect x="10" y="10" width="30" height="30" rx="15" fill="url(#paint0_linear_0_1888)"/>
</g>
<path fill-rule="evenodd" clip-rule="evenodd" d="M22.1447 33C22.853 33 23.4742 32.4995 23.8224 31.7477C24.1706 32.4995 24.7917 33 25.5 33C26.1456 33 26.7189 32.5841 27.0789 31.9411C27.439 32.5841 28.0123 33 28.6579 33C29.7479 33 30.6316 31.8145 30.6316 30.3521C30.6316 30.064 30.5973 29.7866 30.5338 29.5268C32.0485 28.3156 33 26.5657 33 24.6196C33 20.9637 29.6421 18 25.5 18C21.3579 18 18 20.9637 18 24.6196C18 26.4955 18.884 28.189 20.3044 29.3936C20.2183 29.6908 20.1711 30.0141 20.1711 30.3521C20.1711 31.8145 21.0547 33 22.1447 33ZM25.4013 28.1117C27.8539 28.1117 29.8421 26.607 29.8421 24.7509C29.8421 22.8948 27.8539 21.3902 25.4013 21.3902C22.9487 21.3902 20.9605 22.8948 20.9605 24.7509C20.9605 26.607 22.9487 28.1117 25.4013 28.1117Z" fill="white"/>
<defs>
<filter id="filter0_d_0_1888" x="0" y="0" width="50" height="50" filterUnits="userSpaceOnUse" color-interpolation-filters="sRGB">
<feFlood flood-opacity="0" result="BackgroundImageFix"/>
<feColorMatrix in="SourceAlpha" type="matrix" values="0 0 0 0 0 0 0 0 0 0 0 0 0 0 0 0 0 0 127 0" result="hardAlpha"/>
<feOffset/>
<feGaussianBlur stdDeviation="5"/>
<feColorMatrix type="matrix" values="0 0 0 0 0.639216 0 0 0 0 0.419608 0 0 0 0 0.796078 0 0 0 0.7 0"/>
<feBlend mode="normal" in2="BackgroundImageFix" result="effect1_dropShadow_0_1888"/>
<feBlend mode="normal" in="SourceGraphic" in2="effect1_dropShadow_0_1888" result="shape"/>
</filter>
<linearGradient id="paint0_linear_0_1888" x1="10" y1="10" x2="10" y2="40" gradientUnits="userSpaceOnUse">
<stop stop-color="#A864C7"/>
<stop offset="1" stop-color="#C261D4"/>
</linearGradient>
</defs>
</svg>
