<svg width="50" height="50" viewBox="0 0 50 50" fill="none" xmlns="http://www.w3.org/2000/svg">
<g filter="url(#filter0_d_0_1849)">
<rect x="10" y="10" width="30" height="30" rx="15" fill="url(#paint0_linear_0_1849)"/>
</g>
<path fill-rule="evenodd" clip-rule="evenodd" d="M25 33C27.7614 33 30 29.5474 30 25.2884C30 21.0294 27.7614 17.5768 25 17.5768C22.2386 17.5768 20 21.0294 20 25.2884C20 29.5474 22.2386 33 25 33ZM24.1665 31.4031C21.6293 30.8479 22.0634 28.0373 22.0634 28.0373C22.0634 28.0373 22.7563 29.734 24.4376 30.2835C26.1189 30.8331 28.1507 30.0271 28.1507 30.0271C28.1507 30.0271 26.7037 31.9582 24.1665 31.4031Z" fill="white"/>
<defs>
<filter id="filter0_d_0_1849" x="0" y="0" width="50" height="50" filterUnits="userSpaceOnUse" color-interpolation-filters="sRGB">
<feFlood flood-opacity="0" result="BackgroundImageFix"/>
<feColorMatrix in="SourceAlpha" type="matrix" values="0 0 0 0 0 0 0 0 0 0 0 0 0 0 0 0 0 0 127 0" result="hardAlpha"/>
<feOffset/>
<feGaussianBlur stdDeviation="5"/>
<feColorMatrix type="matrix" values="0 0 0 0 0.333333 0 0 0 0 0.619608 0 0 0 0 0.87451 0 0 0 0.7 0"/>
<feBlend mode="normal" in2="BackgroundImageFix" result="effect1_dropShadow_0_1849"/>
<feBlend mode="normal" in="SourceGraphic" in2="effect1_dropShadow_0_1849" result="shape"/>
</filter>
<linearGradient id="paint0_linear_0_1849" x1="10" y1="10" x2="10" y2="40" gradientUnits="userSpaceOnUse">
<stop stop-color="#4A90DD"/>
<stop offset="1" stop-color="#6CBDE4"/>
</linearGradient>
</defs>
</svg>
